<?xml version="1.0" encoding="utf-8"?>
<!-- Generator: Adobe Illustrator 21.1.0, SVG Export Plug-In . SVG Version: 6.00 Build 0)  -->
<svg version="1.0"
	 id="svg3713" inkscape:version="0.92.4 (5da689c313, 2019-01-14)" sodipodi:docname="pre-send(5)-(3).svg" xmlns:cc="http://creativecommons.org/ns#" xmlns:dc="http://purl.org/dc/elements/1.1/" xmlns:inkscape="http://www.inkscape.org/namespaces/inkscape" xmlns:osb="http://www.openswatchbook.org/uri/2009/osb" xmlns:rdf="http://www.w3.org/1999/02/22-rdf-syntax-ns#" xmlns:sodipodi="http://sodipodi.sourceforge.net/DTD/sodipodi-0.dtd" xmlns:svg="http://www.w3.org/2000/svg"
	 xmlns="http://www.w3.org/2000/svg" xmlns:xlink="http://www.w3.org/1999/xlink" x="0px" y="0px" viewBox="0 0 1029.1 267"
	 style="enable-background:new 0 0 1029.1 267;" xml:space="preserve">
<style type="text/css">
	.st0{fill:url(#rect1029_1_);stroke:#000000;stroke-width:0.378;}
	.st1{fill:url(#path1031-4_1_);stroke:#000000;stroke-width:1.4886;}
	.st2{fill:url(#path1757_1_);stroke:#000000;stroke-width:1.4886;}
</style>
<sodipodi:namedview  bordercolor="#666666" borderopacity="1" gridtolerance="10" guidetolerance="10" id="namedview3715" inkscape:current-layer="svg3713" inkscape:cx="668.82085" inkscape:cy="484.46712" inkscape:guide-bbox="true" inkscape:pageopacity="0" inkscape:pageshadow="2" inkscape:snap-bbox="false" inkscape:window-height="657" inkscape:window-maximized="1" inkscape:window-width="1280" inkscape:window-x="-8" inkscape:window-y="32" inkscape:zoom="0.5" objecttolerance="10" pagecolor="#ffffff" showgrid="false" showguides="true">
	<inkscape:grid  id="grid4535" type="xygrid"></inkscape:grid>
	<sodipodi:guide  id="guide971" inkscape:locked="false" orientation="0,1" position="1015,892"></sodipodi:guide>
	<sodipodi:guide  id="guide973" inkscape:locked="false" orientation="0,1" position="634.5,747.6875"></sodipodi:guide>
	<sodipodi:guide  id="guide975" inkscape:locked="false" orientation="0,1" position="872.125,839.625"></sodipodi:guide>
	<sodipodi:guide  id="guide1027" inkscape:locked="false" orientation="0,1" position="784.53498,567.80675"></sodipodi:guide>
	<sodipodi:guide  id="guide1050" inkscape:locked="false" orientation="0,1" position="873.27688,647.70981"></sodipodi:guide>
</sodipodi:namedview>
<g id="flowRoot961">
</g>
<g id="flowRoot1011" transform="translate(68.361432,331.16251)">
	<path id="path870" d="M22.4-133.6v-90.1H8.6v-14.3h29.9v12.9c8-9.4,17.7-14.1,29.1-14.1c11.5,0,21,3.9,28.5,11.8
		c7.6,7.9,11.3,18.2,11.3,30.8c0,13.3-4.1,23.7-12.3,31.4c-8.2,7.7-17.5,11.5-27.9,11.5c-10.8,0-20.4-4.2-28.8-12.5v32.6h15.9v14.3
		h-47v-14.3H22.4z M38.3-195.8c0,4.5,0.9,8.8,2.8,12.9c1.9,4.1,4.8,7.6,8.9,10.4c4.1,2.8,8.8,4.1,14.3,4.1c7.7,0,14-2.6,19-7.7
		c5-5.1,7.5-12.2,7.5-21.2c0-8.7-2.6-15.6-7.9-20.5c-5.2-4.9-11.1-7.4-17.8-7.4c-7.1,0-13.4,2.7-18.8,8
		C40.9-211.6,38.3-204.6,38.3-195.8z"/>
	<path id="path872" d="M134.9-170.3v-53.3h-16.5v-14.3h29.4v18.5c1.8-4.8,4.3-8.8,7.5-11.9c3.2-3.2,6.6-5.2,10.2-6.3
		c3.6-1,8.5-1.5,14.7-1.5h4.2v16.3h-3.2c-8.2,0-14.3,0.8-18.4,2.5c-4,1.6-7,4.6-9,9c-1.9,4.3-2.9,12-2.9,23.2v18h17.9v14.3h-50.4
		v-14.3L134.9-170.3z"/>
	<path id="path874" d="M271.3-192.9h-68.9c1,7.6,4,13.7,9,18.4c5,4.7,11.3,7,19,7c11.2,0,20.1-4.5,26.7-13.5l14.2,6.3
		c-4.6,7.2-10.6,12.5-18,16c-7.4,3.4-15.1,5.2-23.2,5.2c-12.5,0-23.2-3.9-32.2-11.7c-8.9-7.8-13.3-18.4-13.3-31.7
		c0-12.6,4.3-22.9,12.9-31.1c8.7-8.1,18.6-12.2,29.9-12.2c11,0,21,4,29.9,11.9C266.3-220.4,270.9-208.6,271.3-192.9L271.3-192.9z
		 M254.7-204.6c-1.1-5.8-4.1-10.9-9-15.6c-4.9-4.7-10.8-7-17.9-7c-6.4,0-11.9,2.1-16.5,6.3c-4.6,4.2-7.4,9.6-8.4,16.3H254.7z"/>
</g>
<g id="flowRoot1019" transform="translate(487.49809,355.54297)">
	<path id="path877" d="M94-180.1v-28.1h14.4v2.7c0.5,3.8,2.6,7,6.2,9.5c3.7,2.5,8,3.7,12.9,3.7c5.2,0,9.3-0.9,12.4-2.7
		s4.7-4.3,4.7-7.5c0-3.1-1.3-5.4-3.9-6.9c-2.5-1.5-7.6-2.8-15.2-4.1c-11.3-1.9-19.4-5-24.2-9.2c-4.8-4.3-7.2-9.8-7.2-16.6
		c0-6.8,2.6-12.5,7.9-17.1c5.2-4.6,12.2-6.9,20.7-6.9c7.7,0,14.4,1.6,20,4.7v-3.5H157v27.2h-14.3v-5c-4.3-6.7-10.7-10.1-19-10.1
		c-4.2,0-7.7,0.9-10.5,2.8c-2.7,1.8-4.1,4.2-4.1,7.3c0,3.1,1.2,5.2,3.7,6.4c2.5,1.1,8,2.3,16.3,3.6c8,1.2,14,2.7,18,4.4
		c4.1,1.6,7.4,4.4,10.1,8.3c2.7,3.8,4.1,8.3,4.1,13.5c0,7.6-2.9,13.7-8.8,18.2c-5.8,4.5-13.4,6.7-22.7,6.7c-8.7,0-15.9-2-21.4-5.9
		v4.6H94z"/>
	<path id="path879" d="M259.4-217h-68.9c1,7.6,4,13.7,9,18.4c5,4.7,11.3,7,19,7c11.2,0,20.1-4.5,26.7-13.5l14.2,6.3
		c-4.6,7.2-10.6,12.5-18,16c-7.4,3.4-15.1,5.2-23.2,5.2c-12.5,0-23.2-3.9-32.2-11.7c-8.9-7.8-13.3-18.4-13.3-31.7
		c0-12.6,4.3-22.9,12.9-31.1c8.7-8.1,18.6-12.2,29.9-12.2c11,0,21,4,29.9,11.9C254.4-244.4,259-232.6,259.4-217L259.4-217z
		 M242.8-228.6c-1.1-5.8-4.1-10.9-9-15.6c-4.9-4.7-10.8-7-17.9-7c-6.4,0-11.9,2.1-16.5,6.3c-4.6,4.2-7.4,9.6-8.4,16.3H242.8z"/>
	<path id="path881" d="M301.1-262v9.9c10.3-7.4,19.7-11.2,28.3-11.2c5.3,0,9.7,1.3,13.1,3.8c3.5,2.5,5.8,5.6,6.9,9.2
		c1.1,3.6,1.6,8.9,1.6,15.9v39.9h13.8v14.3h-29.9v-53.6c0-6.2-0.9-10.2-2.8-12.1c-1.9-1.9-4.1-2.9-6.9-2.9
		c-7.1,0-15.1,3.5-24.1,10.4v43.8h14.1v14.3h-44.6v-14.3H285v-53.3h-14.4V-262L301.1-262z"/>
	<path id="path883" d="M473.4-194.4v14.3h-30.8v-12c-8,8.9-17.8,13.4-29.3,13.4c-10.7,0-20-3.6-28.1-10.9s-12.1-17.6-12.1-31.1
		c0-13.5,4.1-24.1,12.4-31.9c8.3-7.8,17.7-11.7,28.1-11.7c11.1,0,20.7,4.4,28.9,13.2v-32.4h-15.7v-14.3h31.8v103.4H473.4z
		 M390.3-221.1c0,9,2.5,16,7.6,20.8c5.1,4.9,11.3,7.3,18.4,7.3c6.9,0,13-2.5,18.3-7.6c5.4-5.1,8-12.2,8-21.2
		c0-9.1-2.7-15.9-8.2-20.6c-5.4-4.6-11.5-6.9-18.3-6.9c-7.3,0-13.4,2.7-18.4,8.2C392.8-235.7,390.3-229.1,390.3-221.1L390.3-221.1z"
		/>
</g>
<linearGradient id="rect1029_1_" gradientUnits="userSpaceOnUse" x1="164.7034" y1="520.5555" x2="165.7034" y2="520.5555" gradientTransform="matrix(24.5737 0 0 -15.2022 80770.5547 8048.688)">
	<stop  offset="0" style="stop-color:#000000"/>
	<stop  offset="1" style="stop-color:#000000"/>
</linearGradient>
<path id="rect1029" class="st0" d="M448.8,125.7h20.2c2.8,0,5,2.2,5,5v8.7c0,2.8-2.2,5-5,5h-20.2c-2.8,0-5-2.2-5-5v-8.7
	C443.8,128,446.1,125.7,448.8,125.7z"/>
<linearGradient id="path1031-4_1_" gradientUnits="userSpaceOnUse" x1="198.5346" y1="496.3227" x2="199.5346" y2="496.3227" gradientTransform="matrix(-64.8894 0 0 -70.3206 -209357.9531 35036.8125)">
	<stop  offset="0" style="stop-color:#000000"/>
	<stop  offset="1" style="stop-color:#000000"/>
</linearGradient>
<path id="path1031-4" inkscape:flatsided="true" inkscape:randomized="0" inkscape:rounded="0.1" sodipodi:arg1="0.0013860905" sodipodi:arg2="1.0485836" sodipodi:cx="-941.37714" sodipodi:cy="929.23383" sodipodi:r1="49.477619" sodipodi:r2="34.885494" sodipodi:sides="3" sodipodi:type="star" class="st1" d="
	M478.1,135.2c0,8.6,66.9,47,74.3,42.7s7.3-81.4-0.1-85.7S478.1,126.6,478.1,135.2z"/>
<linearGradient id="path1757_1_" gradientUnits="userSpaceOnUse" x1="179.9491" y1="496.3227" x2="180.9491" y2="496.3227" gradientTransform="matrix(64.8894 0 0 -70.3206 211481.8438 35036.8125)">
	<stop  offset="0" style="stop-color:#000000"/>
	<stop  offset="1" style="stop-color:#000000"/>
</linearGradient>
<path id="path1757" inkscape:flatsided="true" inkscape:randomized="0" inkscape:rounded="0.1" sodipodi:arg1="0.0013860905" sodipodi:arg2="1.0485836" sodipodi:cx="804.02368" sodipodi:cy="929.23383" sodipodi:r1="49.477619" sodipodi:r2="34.885494" sodipodi:sides="3" sodipodi:type="star" class="st2" d="
	M439.7,135.2c0,8.6-66.9,47-74.3,42.7s-7.3-81.4,0.1-85.7S439.8,126.6,439.7,135.2z"/>
</svg>
